<svg enable-background="new 2.3 -3 34 33.4" height="50" viewBox="2.3 -3 34 33.4" xmlns="http://www.w3.org/2000/svg"><path d="m19.5-1.3c-8.3 0-15 6.7-15 15 0 3.4 1.1 6.6 3.1 9.1l12.5-16.4h-1.3-1.3c-1.4 0-2.8.1-3.7.3-.6.1-1.1.3-1.5.6-.5.3-1.1 1.1-1.5 1.8 0 .1-.1.2-.2.4l-.9-.1 1.2-4.7h15.6l-12.4 16.5c.8-.1 1.1-.1 1.8-.1.5 0 1.3 0 2.3.1l2.2.1c.8 0 1.5.1 2 .1 1.1 0 1.9-.1 2.6-.3.6-.2 1.1-.4 1.6-.8.9-.6 1.7-1.6 2.2-2.5 0-.1.1-.2.2-.4l.7.2c-.2.8-.3 1.1-.7 1.9-.7 1.5-1.4 2.5-2.5 3.3s-2.2 1.2-3.6 1.2h-.2c-1 0-1.8-.1-4.3-.5s-3.8-.5-5.1-.5c-.8 0-1.6.1-2.4.2-1.1.2-1.5.3-2.5.7 2.7 3 6.7 4.9 11.1 4.9 8.3 0 15-6.7 15-15 0-8.4-6.7-15.1-15-15.1" fill="#2167ae"/></svg>