<svg enable-background="new 2.3 -3 128.8 33.4" height="50" viewBox="2.3 -3 128.8 33.4" width="193" xmlns="http://www.w3.org/2000/svg"><g fill="#2167ae"><path d="m19.5-1.3c-8.3 0-15 6.7-15 15 0 3.4 1.1 6.6 3.1 9.1l12.5-16.4h-1.3-1.3c-1.4 0-2.8.1-3.7.3-.6.1-1.1.3-1.5.6-.5.3-1.1 1.1-1.5 1.8 0 .1-.1.2-.2.4l-.9-.1 1.2-4.7h15.6l-12.4 16.5c.8-.1 1.1-.1 1.8-.1.5 0 1.3 0 2.3.1l2.2.1c.8 0 1.5.1 2 .1 1.1 0 1.9-.1 2.6-.3.6-.2 1.1-.4 1.6-.8.9-.6 1.7-1.6 2.2-2.5 0-.1.1-.2.2-.4l.7.2c-.2.8-.3 1.1-.7 1.9-.7 1.5-1.4 2.5-2.5 3.3s-2.2 1.2-3.6 1.2h-.2c-1 0-1.8-.1-4.3-.5s-3.8-.5-5.1-.5c-.8 0-1.6.1-2.4.2-1.1.2-1.5.3-2.5.7 2.7 3 6.7 4.9 11.1 4.9 8.3 0 15-6.7 15-15 0-8.4-6.7-15.1-15-15.1"/><path d="m85.1 12.8c-.5.3-1.1.5-1.8.6-.3 0-.6.1-.8.1-.1 0-.1 0-.2 0v-5.4h.4c.7 0 1.4.1 2 .2.4.1.7.3 1 .5.5.4.8 1 .8 1.8 0 .7-.2 1.2-.6 1.6-.3.3-.6.5-.8.6m5.5 7.2c-.5-.5-1-1-1.7-1.7-.4-.5-.8-.9-1.1-1.2l-2.3-2.7c.3-.1.4-.1.6-.2.7-.3 1.3-.6 1.8-1 .6-.5.9-1 1.2-1.7.1-.4.2-.7.2-1.1 0-.9-.3-1.7-1-2.4-.6-.6-1.4-1.1-2.4-1.3-.7-.2-1.3-.2-2.5-.3-.4 0-.9 0-1.4 0h-3.8c.3.2.3.3.5.6.1.2.2.4.3.5.1.3.1.8.1 1.6v9.6c0 .7 0 1.1-.2 1.4-.1.2-.1.3-.2.5s-.2.3-.5.5h4.6c-.2-.2-.3-.3-.4-.5-.1-.1-.2-.3-.2-.4-.1-.3-.2-.7-.2-1.4 0-.2 0-.5 0-.7v-3.3l2.7 3.2c.1.2.3.4.6.7.3.4.6.6.7.8.5.5 1 .9 1.5 1.2.4.2.8.3 1.4.3h.8 1.8c-.2-.2-.3-.3-.5-.4.1-.2-.1-.4-.4-.6m6.2-10.9c0-1 0-1.2.2-1.6 0-.2 0-.3.1-.5.2-.2.3-.4.5-.6h-4.6c.3.3.4.4.5.6s.2.3.2.5c.1.4.1.7.2 1.6v.9 8.7c0 .5-.1 1.1-.2 1.4-.1.1-.1.3-.2.4-.1.2-.2.2-.4.5h4.6c-.2-.2-.3-.3-.4-.5-.1-.1-.2-.3-.2-.4-.1-.3-.2-.8-.2-1.3v-8.8zm14 9.8c-.9.4-1.7.5-2.6.5-1.5 0-2.8-.5-3.8-1.6-.9-1-1.5-2.4-1.5-4 0-1.5.5-3 1.3-3.9.4-.4.8-.8 1.3-1.1.8-.5 1.8-.7 2.8-.7.9 0 1.8.2 2.6.5.5.2.7.3 1.2.7v-2.8c-.4-.1-.5-.2-.9-.2-.8-.2-1.7-.3-2.6-.3-1.6 0-2.9.3-4.2.8-.7.3-1.4.7-2 1.2-1.8 1.4-2.8 3.5-2.8 6 0 2.3.9 4.4 2.7 5.7 1.4 1.1 3.3 1.7 5.5 1.7 1.4 0 2.7-.2 4.1-.7.1 0 .1 0 .2-.1v-2.6c-.4.2-.5.3-.7.4 0 .2-.3.4-.6.5m17.2-9.8c0-.6.1-1.1.2-1.5.1-.2.1-.4.2-.5.2-.2.3-.4.6-.6h-4.8c.3.2.4.3.5.6.1.2.2.3.2.5.1.3.2.8.2 1.5v3.5h-6.6v-2.7c0-.8 0-1.3 0-1.7 0-.2.1-.4.1-.6.1-.3.4-.8.6-1 0 0 .1-.1.2-.2h-4.7c.3.3.4.4.5.6.1.1.2.3.3.5.1.4.1.6.2 1.5v.9 8c0 .8 0 1.2-.1 1.5 0 .2-.1.4-.1.6-.1.3-.3.6-.6.8 0 0-.1.1-.2.1h4.6c-.2-.2-.3-.3-.4-.5-.1-.1-.2-.3-.2-.5-.1-.4-.2-.7-.2-1.3 0-.3 0-.6 0-.9v-3.5h6.6v3.6c0 .8 0 1.1-.1 1.5 0 .2-.1.4-.2.6-.1.3-.3.5-.5.8 0 0-.1.1-.2.2h4.7c-.2-.2-.3-.3-.4-.5s-.2-.3-.3-.5c-.1-.3-.2-.6-.2-1.3 0-.4 0-.7 0-.8v-8zm-72.1 9.9c-.6.1-1.4.2-2.3.2-.3 0-.7 0-1.2 0h-2.2l8.9-12.8h-11.5l-1.4 3.1c.5-.2.7-.3 1.1-.5.7-.3 1.4-.5 2.1-.6.6-.1 1.2-.2 2.1-.2h1.1 1.7l-9.1 12.8h12.6l1.5-3.3c-.5.3-.7.4-1.1.6-.7.3-1.5.5-2.3.7m16-12c.1.2.2.3.2.5.1.4.1.7.1 1.5v5.6c0 1.2 0 1.9-.1 2.5-.1.4-.2.8-.4 1.1-.4.6-1 1-1.8 1.2-.3.1-.7.1-1 .1-1.3 0-2.3-.5-2.9-1.2-.4-.6-.5-1.2-.5-2.7v-1.2-4.4c0-.9 0-1.3 0-1.7 0-.3.1-.5.1-.7.1-.3.3-.8.6-1.1 0 0 .1-.1.1-.1h-4.7c.3.2.4.4.6.6.1.2.2.3.2.5.1.2.1.4.1.7v.9.8 4.2c0 1.6 0 1.9.1 2.6.1 1.1.4 1.9 1 2.7 1.1 1.4 2.9 2.1 5.2 2.1 1.1 0 2.1-.2 2.9-.5s1.6-.8 2.2-1.5c.7-.8 1.1-1.7 1.2-2.8.1-.7.1-1.5.1-2.6v-4.2-.8-.2c0-.6 0-1 .1-1.3.1-.2.1-.4.3-.6s.3-.4.6-.6h-4.7c.2.2.3.3.4.6"/></g></svg>